<svg width="76" height="76" viewBox="0 0 76 76" fill="none" xmlns="http://www.w3.org/2000/svg">
<path d="M5.5 58H70.5V68H5.5V58Z" fill="#FFB655"/>
<path d="M5.5 43H70.5V58H5.5V43Z" fill="#FFEB99"/>
<path d="M74.25 68V69.25C74.25 70.5761 73.7232 71.8479 72.7855 72.7855C71.8479 73.7232 70.5761 74.25 69.25 74.25H6.75C5.42392 74.25 4.15215 73.7232 3.21447 72.7855C2.27678 71.8479 1.75 70.5761 1.75 69.25V68H74.25Z" fill="#009698"/>
<path d="M70.5 35.5V43H60.5V58.625C60.5 59.7853 60.0391 60.8981 59.2186 61.7186C58.3981 62.5391 57.2853 63 56.125 63C54.9647 63 53.8519 62.5391 53.0314 61.7186C52.2109 60.8981 51.75 59.7853 51.75 58.625V48C51.75 48.9946 51.3549 49.9484 50.6516 50.6516C49.9484 51.3549 48.9946 51.75 48 51.75C47.0054 51.75 46.0516 51.3549 45.3484 50.6516C44.6451 49.9484 44.25 48.9946 44.25 48V43H5.5V35.5C5.5 34.1739 6.02678 32.9021 6.96447 31.9645C7.90215 31.0268 9.17392 30.5 10.5 30.5H65.5C66.8261 30.5 68.0979 31.0268 69.0355 31.9645C69.9732 32.9021 70.5 34.1739 70.5 35.5Z" fill="#F072AE"/>
<path d="M41.75 19.25V30.5H34.25V19.25H38H41.75Z" fill="#FF9811"/>
<path d="M38 15.5C36.6739 15.5 35.4021 14.9732 34.4645 14.0355C33.5268 13.0979 33 11.8261 33 10.5C33 7.7375 38 1.75 38 1.75C38 1.75 43 7.7375 43 10.5C43 11.8261 42.4732 13.0979 41.5355 14.0355C40.5979 14.9732 39.3261 15.5 38 15.5Z" fill="#FF5023"/>
<path d="M74.25 66.7502H71.75V35.5002C71.75 33.8425 71.0915 32.2528 69.9194 31.0807C68.7473 29.9086 67.1576 29.2502 65.5 29.2502H43V19.2502C43 18.9186 42.8683 18.6007 42.6339 18.3663C42.3995 18.1318 42.0815 18.0002 41.75 18.0002H39.25V16.6252C40.6599 16.3333 41.9264 15.5652 42.8369 14.4499C43.7473 13.3346 44.2463 11.9399 44.25 10.5002C44.25 7.43765 39.8375 2.01265 38.9625 0.950152C38.8415 0.814544 38.6932 0.706038 38.5273 0.631743C38.3615 0.557449 38.1818 0.519043 38 0.519043C37.8182 0.519043 37.6385 0.557449 37.4727 0.631743C37.3068 0.706038 37.1585 0.814544 37.0375 0.950152C36.1625 2.01265 31.75 7.43765 31.75 10.5002C31.7537 11.9399 32.2527 13.3346 33.1631 14.4499C34.0736 15.5652 35.3401 16.3333 36.75 16.6252V18.0002H34.25C33.9185 18.0002 33.6005 18.1318 33.3661 18.3663C33.1317 18.6007 33 18.9186 33 19.2502V29.2502H10.5C8.8424 29.2502 7.25269 29.9086 6.08058 31.0807C4.90848 32.2528 4.25 33.8425 4.25 35.5002V66.7502H1.75C1.41848 66.7502 1.10054 66.8818 0.866116 67.1163C0.631696 67.3507 0.5 67.6686 0.5 68.0002V69.2502C0.5 70.9078 1.15848 72.4975 2.33058 73.6696C2.91095 74.2499 3.59994 74.7103 4.35823 75.0244C5.11651 75.3385 5.92924 75.5002 6.75 75.5002H69.25C70.9076 75.5002 72.4973 74.8417 73.6694 73.6696C74.8415 72.4975 75.5 70.9078 75.5 69.2502V68.0002C75.5 67.6686 75.3683 67.3507 75.1339 67.1163C74.8995 66.8818 74.5815 66.7502 74.25 66.7502ZM34.25 10.5002C34.25 9.16265 36.2125 6.08765 38 3.75015C39.7875 6.08765 41.75 9.15015 41.75 10.5002C41.746 11.2734 41.5039 12.0266 41.0566 12.6574C40.6092 13.2881 39.9784 13.7657 39.25 14.0252V13.0002H36.75V14.0252C36.0216 13.7657 35.3908 13.2881 34.9434 12.6574C34.4961 12.0266 34.254 11.2734 34.25 10.5002ZM35.5 20.5002H40.5V29.2502H35.5V20.5002ZM6.75 35.5002C6.75297 34.5065 7.14901 33.5544 7.85163 32.8518C8.55425 32.1492 9.50635 31.7531 10.5 31.7502H65.5C66.4937 31.7531 67.4458 32.1492 68.1484 32.8518C68.851 33.5544 69.247 34.5065 69.25 35.5002V41.7502H60.5C60.1685 41.7502 59.8505 41.8818 59.6161 42.1163C59.3817 42.3507 59.25 42.6686 59.25 43.0002V58.6252C59.25 59.454 58.9208 60.2488 58.3347 60.8349C57.7487 61.4209 56.9538 61.7502 56.125 61.7502C55.2962 61.7502 54.5013 61.4209 53.9153 60.8349C53.3292 60.2488 53 59.454 53 58.6252V44.2502H50.5V48.0002C50.5 48.6632 50.2366 49.2991 49.7678 49.7679C49.2989 50.2368 48.663 50.5002 48 50.5002C47.337 50.5002 46.7011 50.2368 46.2322 49.7679C45.7634 49.2991 45.5 48.6632 45.5 48.0002V43.0002C45.5 42.6686 45.3683 42.3507 45.1339 42.1163C44.8995 41.8818 44.5815 41.7502 44.25 41.7502H6.75V35.5002ZM69.25 44.2502V56.7502H61.75V44.2502H69.25ZM6.75 44.2502H43V48.0002C43 49.3262 43.5268 50.598 44.4645 51.5357C45.4021 52.4734 46.6739 53.0002 48 53.0002C48.8812 52.9967 49.7451 52.7548 50.5 52.3001V56.7502H6.75V44.2502ZM6.75 59.2502H50.5625C50.7112 60.625 51.3626 61.8964 52.3916 62.8201C53.4206 63.7439 54.7547 64.2548 56.1375 64.2548C57.5203 64.2548 58.8544 63.7439 59.8834 62.8201C60.9124 61.8964 61.5638 60.625 61.7125 59.2502H69.25V66.7502H6.75V59.2502ZM69.25 73.0002H6.75C5.75635 72.9972 4.80425 72.6011 4.10163 71.8985C3.39901 71.1959 3.00297 70.2438 3 69.2502H73C72.997 70.2438 72.601 71.1959 71.8984 71.8985C71.1958 72.6011 70.2437 72.9972 69.25 73.0002Z" fill="black"/>
</svg>
