<svg width="80" height="80" viewBox="0 0 80 80" fill="none" xmlns="http://www.w3.org/2000/svg">
<path d="M70.5238 48.5393H9.47626C7.7561 48.5393 6.36157 49.9338 6.36157 51.654V76.779H73.6385V51.654C73.6385 49.9338 72.2439 48.5393 70.5238 48.5393Z" fill="#CE8570"/>
<path d="M66.293 48.5394H13.707V31.5644C13.707 29.8442 15.1016 28.4497 16.8217 28.4497H63.1784C64.8986 28.4497 66.2931 29.8442 66.2931 31.5644V48.5394H66.293Z" fill="#CE8570"/>
<path d="M70.5238 48.5393H9.47626C7.7561 48.5393 6.36157 49.9338 6.36157 51.654V58.5063C11.9678 58.5063 11.9678 62.244 17.5741 62.244C23.1802 62.244 23.1802 58.5063 28.7861 58.5063C34.3924 58.5063 34.3924 62.244 39.9986 62.244C45.605 62.244 45.605 58.5063 51.2116 58.5063C56.8183 58.5063 56.8183 62.244 62.425 62.244C68.0317 62.244 68.0317 58.5063 73.6385 58.5063V51.654C73.6385 49.9338 72.2439 48.5393 70.5238 48.5393Z" fill="#F4DAAB"/>
<path d="M66.293 31.5642C66.293 29.844 64.8984 28.4495 63.1783 28.4495H16.8217C15.1016 28.4495 13.707 29.844 13.707 31.5642V37.5235C14.6891 38.0031 15.8728 38.3481 17.5741 38.3481C23.1802 38.3481 23.1802 34.6104 28.7861 34.6104C34.3923 34.6104 34.3923 38.3481 39.9986 38.3481C45.605 38.3481 45.605 34.6104 51.2116 34.6104C56.8183 34.6104 56.8183 38.3481 62.425 38.3481C64.1269 38.3481 65.3108 38.0027 66.293 37.5232V31.5642Z" fill="#F4DAAB"/>
<path d="M27.6968 50.1016C27.5952 50.1016 27.4921 50.0922 27.3921 50.0719C27.2921 50.0516 27.1937 50.0219 27.0999 49.9828C27.0046 49.9438 26.914 49.8953 26.8296 49.8391C26.7437 49.7813 26.664 49.7156 26.5921 49.6438C26.5202 49.5719 26.4546 49.4922 26.3983 49.4063C26.3421 49.3219 26.2937 49.2313 26.2546 49.1375C26.2155 49.0422 26.1858 48.9438 26.1655 48.8453C26.1452 48.7438 26.1343 48.6406 26.1343 48.5391C26.1343 48.4375 26.1452 48.3344 26.1655 48.2344C26.1858 48.1344 26.2155 48.036 26.2546 47.9422C26.2937 47.8469 26.3421 47.7563 26.3983 47.6719C26.4546 47.586 26.5202 47.5063 26.5921 47.4344C26.664 47.3625 26.7437 47.2969 26.8296 47.2406C26.914 47.1844 27.0046 47.136 27.0999 47.0969C27.1937 47.0578 27.2921 47.0281 27.3921 47.0078C27.8999 46.9047 28.439 47.0719 28.8015 47.4344C28.8733 47.5063 28.939 47.586 28.9968 47.6719C29.053 47.7563 29.1015 47.8469 29.1405 47.9422C29.1796 48.036 29.2093 48.1344 29.2296 48.2344C29.2499 48.3344 29.2593 48.4375 29.2593 48.5391C29.2593 48.6406 29.2499 48.7438 29.2296 48.8453C29.2093 48.9438 29.1796 49.0422 29.1405 49.1375C29.1015 49.2313 29.053 49.3219 28.9968 49.4063C28.939 49.4922 28.8733 49.5719 28.8015 49.6438C28.5108 49.9342 28.1077 50.1016 27.6968 50.1016Z" fill="black"/>
<path d="M26.5619 19.5856C24.6945 21.453 21.667 21.453 19.7995 19.5856C18.3506 18.1367 17.9859 15.9256 18.893 14.0881L23.1808 5.40125L27.4686 14.0881C28.3755 15.9256 28.0109 18.1367 26.5619 19.5856Z" fill="#E2A546"/>
<path d="M43.381 17.4055C41.5136 19.2728 38.4861 19.2728 36.6186 17.4055C35.1697 15.9566 34.805 13.7455 35.7121 11.908L39.9999 3.22095L44.2877 11.9078C45.1946 13.7453 44.83 15.9564 43.381 17.4055Z" fill="#E2A546"/>
<path d="M60.2003 19.5856C58.333 21.453 55.3055 21.453 53.438 19.5856C51.9891 18.1367 51.6244 15.9256 52.5314 14.0881L56.8192 5.40125L61.107 14.0881C62.0139 15.9256 61.6494 18.1367 60.2003 19.5856Z" fill="#E2A546"/>
<path d="M78.4375 75.2163H75.2009V58.5062V51.654C75.2009 49.0749 73.1028 46.9768 70.5238 46.9768H67.8555V37.5234V31.5643C67.8555 28.9854 65.7573 26.8871 63.1783 26.8871H58.3817V22.3505C59.4536 22.0799 60.4683 21.5273 61.3052 20.6904C63.2287 18.767 63.7122 15.8359 62.5081 13.3963L58.2203 4.70961C57.957 4.17633 57.4139 3.83867 56.8192 3.83867C56.2245 3.83867 55.6814 4.17633 55.4181 4.70961L51.1303 13.3965C49.9263 15.8357 50.4097 18.767 52.3333 20.6905C53.1702 21.5274 54.1848 22.0801 55.2567 22.3507V26.8873H41.5625V20.1702C42.6344 19.8996 43.6491 19.347 44.4859 18.5101C46.4095 16.5866 46.8928 13.6555 45.6889 11.216L41.4011 2.52914C41.1378 1.99586 40.5947 1.6582 40 1.6582C39.4053 1.6582 38.8622 1.99586 38.5989 2.52914L34.3111 11.2162C33.1072 13.6555 33.5906 16.5866 35.5141 18.5101C36.3509 19.347 37.3656 19.8996 38.4375 20.1702V26.8871H24.7433V22.3554C25.8402 22.0788 26.8461 21.511 27.6667 20.6904C29.5903 18.767 30.0738 15.8357 28.8697 13.3963L24.5819 4.70945C24.3186 4.17617 23.7755 3.83852 23.1808 3.83852C22.5861 3.83852 22.043 4.17617 21.7797 4.70945L17.4919 13.3965C16.288 15.8357 16.7714 18.767 18.6948 20.6905C19.5155 21.5112 20.5214 22.079 21.6183 22.3555V26.8873H16.8217C14.2427 26.8873 12.1445 28.9854 12.1445 31.5645V37.5238V46.977H9.47625C6.89719 46.977 4.79906 49.0751 4.79906 51.6541V58.5063V75.2165H1.5625C0.699531 75.2165 0 75.916 0 76.779C0 77.642 0.699531 78.3415 1.5625 78.3415H6.36156H73.6384H78.4375C79.3005 78.3415 80 77.642 80 76.779C80 75.916 79.3005 75.2163 78.4375 75.2163ZM54.543 18.4807C53.5669 17.5048 53.3217 16.0174 53.9327 14.7796L56.8194 8.93133L59.7061 14.7796C60.317 16.0174 60.0717 17.5048 59.0958 18.4807C58.8791 18.6974 58.6377 18.8741 58.382 19.016C57.4131 19.5538 56.2259 19.5538 55.257 19.016C55.0011 18.8741 54.7597 18.6974 54.543 18.4807ZM37.7238 16.3004C36.7478 15.3245 36.5025 13.8371 37.1134 12.5993L40 6.75117L42.8867 12.5995C43.4977 13.8373 43.2523 15.3246 42.2764 16.3005C42.0597 16.5173 41.8183 16.694 41.5627 16.8359C40.5939 17.3737 39.4066 17.3737 38.4377 16.8359C38.1819 16.6938 37.9405 16.5173 37.7238 16.3004ZM20.9045 18.4807C19.9284 17.5048 19.6833 16.0174 20.2942 14.7796L23.1809 8.93133L26.0677 14.7796C26.6786 16.0173 26.4333 17.5046 25.4573 18.4807C25.2406 18.6974 24.9992 18.8741 24.7436 19.016C23.7748 19.5538 22.5875 19.5538 21.6186 19.016C21.3627 18.8741 21.1213 18.6974 20.9045 18.4807ZM15.2695 31.5641C15.2695 30.7082 15.9659 30.012 16.8217 30.012H63.1784C64.0344 30.012 64.7306 30.7082 64.7306 31.5641V36.4698C64.0422 36.686 63.3005 36.7855 62.4252 36.7855C60.0948 36.7855 59.0314 36.0766 57.6852 35.1791C56.1866 34.1801 54.4881 33.0479 51.2117 33.0479C47.9355 33.0479 46.237 34.1801 44.7386 35.1791C43.3923 36.0766 42.3291 36.7855 39.9989 36.7855C37.6688 36.7855 36.6055 36.0766 35.2594 35.1791C33.7609 34.1802 32.0627 33.0479 28.7864 33.0479C25.5103 33.0479 23.812 34.1802 22.3136 35.1791C20.9675 36.0766 19.9042 36.7855 17.5744 36.7855C16.6994 36.7855 15.958 36.6859 15.2697 36.4699V31.5641H15.2695ZM72.0759 75.2163H7.92406V60.1993C9.2525 60.4437 10.0987 61.0068 11.1011 61.6751C12.5995 62.6741 14.2978 63.8063 17.5742 63.8063C20.8503 63.8063 22.5486 62.674 24.047 61.6751C25.3931 60.7776 26.4564 60.0687 28.7862 60.0687C31.1162 60.0687 32.1797 60.7776 33.5258 61.6751C35.0242 62.6741 36.7225 63.8063 39.9987 63.8063C43.2752 63.8063 44.9734 62.674 46.4719 61.6751C47.8181 60.7776 48.8814 60.0687 51.2116 60.0687C53.5419 60.0687 54.6053 60.7776 55.9516 61.6751C57.4502 62.674 59.1484 63.8063 62.425 63.8063C65.7014 63.8063 67.3998 62.674 68.8984 61.6751C69.9009 61.0068 70.7473 60.4435 72.0759 60.1991V75.2163ZM72.0759 57.0384C69.7817 57.3305 68.4048 58.2484 67.165 59.0749C65.8187 59.9724 64.7553 60.6813 62.425 60.6813C60.0947 60.6813 59.0314 59.9724 57.685 59.0749C56.1864 58.076 54.488 56.9437 51.2116 56.9437C47.9353 56.9437 46.2369 58.076 44.7384 59.0749C43.3922 59.9724 42.3289 60.6813 39.9987 60.6813C37.6686 60.6813 36.6053 59.9724 35.2592 59.0749C33.7608 58.0759 32.0625 56.9437 28.7861 56.9437C25.51 56.9437 23.8117 58.076 22.3133 59.0749C20.9672 59.9724 19.9039 60.6813 17.5741 60.6813C15.2439 60.6813 14.1806 59.9724 12.8345 59.0749C11.5947 58.2484 10.2181 57.3305 7.92406 57.0384V51.654C7.92406 50.798 8.62047 50.1018 9.47625 50.1018H21.4677C22.3306 50.1018 23.0302 49.4023 23.0302 48.5393C23.0302 47.6763 22.3306 46.9768 21.4677 46.9768H15.2695V39.6905C15.9886 39.8376 16.7483 39.9109 17.5742 39.9109C20.8503 39.9109 22.5486 38.7785 24.047 37.7796C25.3931 36.8821 26.4564 36.1732 28.7862 36.1732C31.1164 36.1732 32.1797 36.8821 33.5258 37.7796C35.0242 38.7785 36.7225 39.9109 39.9987 39.9109C43.275 39.9109 44.9734 38.7785 46.4719 37.7796C47.8181 36.8821 48.8814 36.1732 51.2116 36.1732C53.5419 36.1732 54.6053 36.8821 55.9516 37.7796C57.4502 38.7787 59.1486 39.9109 62.425 39.9109C63.2512 39.9109 64.0112 39.8374 64.7305 39.6904V46.9768H33.9264C33.0634 46.9768 32.3639 47.6763 32.3639 48.5393C32.3639 49.4023 33.0634 50.1018 33.9264 50.1018H70.5238C71.3797 50.1018 72.0759 50.7982 72.0759 51.654V57.0384Z" fill="black"/>
<path d="M13.7078 73.2031C13.2953 73.2031 12.8921 73.036 12.6015 72.7453C12.5296 72.6719 12.464 72.5922 12.4078 72.5078C12.3515 72.4219 12.3031 72.3313 12.264 72.2375C12.225 72.1438 12.1953 72.0453 12.175 71.9453C12.1546 71.8438 12.1453 71.7422 12.1453 71.6406C12.1453 71.5375 12.1546 71.436 12.175 71.3344C12.1953 71.2344 12.225 71.136 12.264 71.0422C12.3031 70.9485 12.3515 70.8578 12.4078 70.7719C12.464 70.6875 12.5296 70.6078 12.6015 70.5344C12.9656 70.1719 13.5046 70.0063 14.0125 70.1078C14.1125 70.1281 14.2109 70.1578 14.3046 70.1969C14.3984 70.236 14.489 70.2844 14.5734 70.3406C14.6593 70.3984 14.739 70.4625 14.8109 70.5344C14.8843 70.6078 14.9484 70.6875 15.0062 70.7719C15.0625 70.8578 15.1109 70.9485 15.15 71.0422C15.189 71.136 15.2187 71.2344 15.239 71.3344C15.2593 71.436 15.2703 71.5375 15.2703 71.6406C15.2703 71.7422 15.2593 71.8438 15.239 71.9453C15.2187 72.0453 15.189 72.1438 15.15 72.2375C15.1109 72.3313 15.0625 72.4219 15.0062 72.5078C14.9484 72.5922 14.8843 72.6719 14.8109 72.7453C14.739 72.8172 14.6593 72.8813 14.5734 72.9391C14.489 72.9953 14.3984 73.0438 14.3046 73.0828C14.2109 73.1219 14.1125 73.1516 14.0125 73.1719C13.9109 73.1922 13.8093 73.2031 13.7078 73.2031Z" fill="black"/>
<path d="M30.5 68.5313C30.3984 68.5313 30.2953 68.5204 30.1953 68.5C30.0953 68.4797 29.9969 68.45 29.9031 68.411C29.8078 68.3719 29.7172 68.3235 29.6328 68.2672C29.5469 68.2094 29.4672 68.1454 29.3953 68.0735C29.3234 68.0016 29.2578 67.9204 29.2016 67.836C29.1453 67.75 29.0969 67.6594 29.0578 67.5657C29.0188 67.4719 28.9891 67.3735 28.9687 67.2735C28.9484 67.1719 28.9375 67.0704 28.9375 66.9672C28.9375 66.8657 28.9484 66.7641 28.9687 66.6625C28.9891 66.5625 29.0188 66.4641 29.0578 66.3704C29.0969 66.2766 29.1453 66.186 29.2016 66.1C29.2578 66.0157 29.3234 65.9344 29.3953 65.8625C29.4672 65.7907 29.5469 65.725 29.6328 65.6688C29.7172 65.6125 29.8078 65.5641 29.9031 65.525C29.9969 65.486 30.0953 65.4563 30.1953 65.436C30.3969 65.3954 30.6047 65.3954 30.8063 65.436C30.9047 65.4563 31.0031 65.486 31.0984 65.525C31.1922 65.5641 31.2828 65.6125 31.3672 65.6688C31.4531 65.725 31.5328 65.7907 31.6047 65.8625C31.6766 65.9344 31.7422 66.0157 31.8 66.1C31.8563 66.186 31.9047 66.2766 31.9438 66.3704C31.9828 66.4641 32.0125 66.5625 32.0328 66.6625C32.0531 66.7641 32.0625 66.8657 32.0625 66.9672C32.0625 67.0704 32.0531 67.1719 32.0328 67.2735C32.0125 67.3735 31.9828 67.4719 31.9438 67.5657C31.9047 67.6594 31.8563 67.75 31.8 67.836C31.7422 67.9204 31.6766 68.0016 31.6047 68.0735C31.5328 68.1454 31.4531 68.2094 31.3672 68.2672C31.2828 68.3235 31.1922 68.3719 31.0984 68.411C31.0031 68.45 30.9047 68.4797 30.8063 68.5C30.7047 68.5204 30.6016 68.5313 30.5 68.5313Z" fill="black"/>
<path d="M48.5657 73.203C48.4641 73.203 48.361 73.1921 48.2594 73.1718C48.161 73.1515 48.0625 73.1218 47.9672 73.0827C47.8735 73.0437 47.7829 72.9952 47.6985 72.939C47.6125 72.8827 47.5329 72.8171 47.461 72.7452C47.3891 72.6734 47.3235 72.5921 47.2657 72.5077C47.2094 72.4218 47.161 72.3312 47.1219 72.2374C47.0829 72.1437 47.0532 72.0452 47.0329 71.9452C47.0125 71.8437 47.0032 71.7421 47.0032 71.6405C47.0032 71.5374 47.0125 71.4359 47.0329 71.3343C47.0532 71.2343 47.0829 71.1359 47.1219 71.0421C47.161 70.9484 47.2094 70.8577 47.2657 70.7718C47.3235 70.6874 47.3891 70.6077 47.461 70.5343C47.5329 70.4624 47.6125 70.3984 47.6985 70.3405C47.7829 70.2843 47.8735 70.2359 47.9672 70.1968C48.0625 70.1577 48.161 70.1281 48.2594 70.1077C48.461 70.0671 48.6688 70.0671 48.8704 70.1077C48.9704 70.1281 49.0688 70.1577 49.1625 70.1968C49.2579 70.2359 49.3485 70.2843 49.4329 70.3405C49.5188 70.3984 49.5985 70.4624 49.6704 70.5343C49.7422 70.6077 49.8079 70.6874 49.8641 70.7718C49.9204 70.8577 49.9688 70.9484 50.0079 71.0421C50.0469 71.1359 50.0766 71.2343 50.0969 71.3343C50.1172 71.4359 50.1282 71.5374 50.1282 71.6405C50.1282 71.7421 50.1172 71.8437 50.0969 71.9452C50.0766 72.0452 50.0469 72.1437 50.0079 72.2374C49.9688 72.3312 49.9204 72.4218 49.8641 72.5077C49.8079 72.5921 49.7422 72.6734 49.6704 72.7452C49.3797 73.0359 48.9766 73.203 48.5657 73.203Z" fill="black"/>
<path d="M66.2937 69.464C66.1906 69.464 66.089 69.4546 65.9875 69.4343C65.8875 69.414 65.789 69.3843 65.6953 69.3452C65.6015 69.3062 65.5109 69.2577 65.425 69.2015C65.3406 69.1437 65.2609 69.0796 65.1875 69.0077C65.1156 68.9343 65.0515 68.8546 64.9937 68.7687C64.9375 68.6843 64.889 68.5937 64.85 68.4999C64.8109 68.4062 64.7812 68.3077 64.7609 68.2077C64.7406 68.1062 64.7312 68.0046 64.7312 67.9015C64.7312 67.7999 64.7406 67.6968 64.7609 67.5968C64.7812 67.4968 64.8109 67.3984 64.85 67.3046C64.889 67.2109 64.9375 67.1187 64.9937 67.0343C65.0515 66.9499 65.1156 66.8687 65.1875 66.7968C65.4796 66.5062 65.8812 66.339 66.2937 66.339C66.7046 66.339 67.1062 66.5062 67.3984 66.7968C67.4703 66.8687 67.5359 66.9499 67.5921 67.0343C67.6484 67.1187 67.6968 67.2109 67.7359 67.3046C67.775 67.3984 67.8046 67.4968 67.8249 67.5968C67.8453 67.6968 67.8562 67.7999 67.8562 67.9015C67.8562 68.0046 67.8453 68.1062 67.8249 68.2077C67.8046 68.3077 67.775 68.4046 67.7359 68.4999C67.6968 68.5937 67.6484 68.6843 67.5921 68.7687C67.5359 68.8546 67.4703 68.9343 67.3984 69.0077C67.1078 69.2984 66.7046 69.464 66.2937 69.464Z" fill="black"/>
<path d="M50.7454 43.925C50.6438 43.925 50.5407 43.914 50.4407 43.8937C50.3407 43.8734 50.2422 43.8437 50.1485 43.8047C50.0532 43.7656 49.9626 43.7172 49.8782 43.6609C49.7922 43.6047 49.7126 43.539 49.6407 43.4672C49.5688 43.3953 49.5032 43.3156 49.4469 43.2297C49.3907 43.1453 49.3422 43.0531 49.3032 42.9593C49.2641 42.8656 49.2344 42.7672 49.2141 42.6672C49.1938 42.5672 49.1829 42.464 49.1829 42.3625C49.1829 42.2609 49.1938 42.1578 49.2141 42.0562C49.2344 41.9578 49.2641 41.8594 49.3032 41.764C49.3422 41.6703 49.3907 41.5797 49.4469 41.4953C49.5032 41.4094 49.5688 41.3297 49.6407 41.2578C49.7126 41.1843 49.7922 41.1203 49.8782 41.0625C49.9626 41.0062 50.0532 40.9578 50.1485 40.9187C50.2422 40.8797 50.3407 40.85 50.4407 40.8297C50.6422 40.789 50.8501 40.789 51.0516 40.8297C51.1501 40.85 51.2485 40.8797 51.3438 40.9187C51.4376 40.9578 51.5282 41.0062 51.6126 41.0625C51.6985 41.1203 51.7782 41.1843 51.85 41.2578C51.9219 41.3297 51.9876 41.4094 52.0454 41.4953C52.1016 41.5797 52.1501 41.6703 52.1891 41.764C52.2282 41.8594 52.2579 41.9578 52.2782 42.0562C52.2985 42.1578 52.3079 42.2609 52.3079 42.3625C52.3079 42.464 52.2985 42.5672 52.2782 42.6672C52.2579 42.7672 52.2282 42.8656 52.1891 42.9593C52.1501 43.0531 52.1016 43.1453 52.0454 43.2297C51.9876 43.3156 51.9219 43.3953 51.85 43.4672C51.7782 43.539 51.6985 43.6047 51.6126 43.6609C51.5282 43.7172 51.4376 43.7656 51.3438 43.8047C51.2485 43.8437 51.1501 43.8734 51.0516 43.8937C50.9501 43.9139 50.8469 43.925 50.7454 43.925Z" fill="black"/>
<path d="M30.3455 41.7969C30.2423 41.7969 30.1408 41.786 30.0392 41.7657C29.9392 41.7454 29.8408 41.7157 29.747 41.6766C29.6533 41.6375 29.5626 41.5891 29.4767 41.5329C29.3923 41.475 29.3126 41.411 29.2392 41.3391C29.1673 41.2657 29.1033 41.186 29.0455 41.1016C28.9892 41.0157 28.9408 40.925 28.9017 40.8313C28.8626 40.7375 28.833 40.6391 28.8126 40.5391C28.7923 40.4375 28.783 40.336 28.783 40.2344C28.783 40.1313 28.7923 40.0297 28.8126 39.9282C28.833 39.8282 28.8626 39.7297 28.9017 39.636C28.9408 39.5422 28.9892 39.4516 29.0455 39.3657C29.1033 39.2813 29.1673 39.2 29.2392 39.1282C29.3126 39.0563 29.3923 38.9907 29.4767 38.9344C29.5626 38.8782 29.6533 38.8297 29.747 38.7907C29.8408 38.7516 29.9392 38.7219 30.0392 38.7016C30.2408 38.661 30.4486 38.661 30.6501 38.7016C30.7501 38.7219 30.8486 38.7516 30.9423 38.7907C31.0361 38.8297 31.1267 38.8782 31.2126 38.9344C31.297 38.9907 31.3783 39.0563 31.4501 39.1282C31.522 39.2 31.5876 39.2813 31.6439 39.3657C31.7001 39.4516 31.7486 39.5422 31.7876 39.636C31.8267 39.7297 31.8564 39.8282 31.8767 39.9282C31.897 40.0297 31.9064 40.1313 31.9064 40.2344C31.9064 40.336 31.897 40.4375 31.8767 40.5391C31.8564 40.6391 31.8267 40.7375 31.7876 40.8313C31.7486 40.925 31.7001 41.0157 31.6439 41.1016C31.5861 41.186 31.522 41.2657 31.4501 41.3391C31.3783 41.411 31.297 41.475 31.2126 41.5329C31.1267 41.5891 31.0361 41.6375 30.9423 41.6766C30.8486 41.7157 30.7501 41.7454 30.6501 41.7657C30.5501 41.786 30.447 41.7969 30.3455 41.7969Z" fill="black"/>
</svg>
