<svg width="40" height="40" viewBox="0 0 40 40" fill="none" xmlns="http://www.w3.org/2000/svg">
<path d="M33.9999 22.2966H23.9999V13.6299H30.8667C32.6001 13.6299 33.9999 15.03 33.9999 16.7634V22.2966Z" fill="#C03A2B"/>
<path d="M36.0001 21.6304H23.9999V29.6302H28.2001C28.7332 28.097 30.1999 26.9636 32.0001 26.9636C33.8 26.9636 35.1999 28.097 35.7999 29.6302H38.6667C39.0668 29.6302 39.3332 29.3635 39.3332 28.9637V24.9638C39.3332 23.097 37.8665 21.6304 36.0001 21.6304Z" fill="#E64C3C"/>
<path d="M30 24.9635H27.9999C27.6001 24.9635 27.3334 24.6968 27.3334 24.2967C27.3334 23.8966 27.6001 23.6299 27.9999 23.6299H30C30.4001 23.6299 30.6668 23.8966 30.6668 24.2967C30.6668 24.6968 30.4001 24.9635 30 24.9635Z" fill="#ECF0F1"/>
<path d="M27.3334 18.9635H33.9999V16.7635C33.9999 16.6301 33.9999 16.4302 33.9334 16.2969H27.3334V18.9635Z" fill="#D0E8F9"/>
<path d="M36.6666 26.9635H39.3332V24.9637C39.3332 24.7635 39.3332 24.4968 39.2667 24.2969H36.6666V26.9635Z" fill="#F0C419"/>
<path d="M2.00012 7.63037H24.6667V27.6304H2.00012V7.63037Z" fill="#CB8252"/>
<path d="M3.33344 35.6302H0.666809C0.266724 35.6302 0 35.3635 0 34.9637C0 34.5636 0.266724 34.2969 0.666809 34.2969H3.33344C3.73322 34.2969 3.99994 34.5636 3.99994 34.9637C3.99994 35.3635 3.73322 35.6302 3.33344 35.6302Z" fill="#8697CB"/>
<path d="M39.3332 35.6302H23.9999C23.5999 35.6302 23.3334 35.3635 23.3334 34.9637C23.3334 34.5636 23.5999 34.2969 23.9999 34.2969H39.3332C39.7333 34.2969 40 34.5636 40 34.9637C40 35.3635 39.7333 35.6302 39.3332 35.6302Z" fill="#8697CB"/>
<path d="M21.3333 35.6302H18.6667C18.2666 35.6302 17.9999 35.3635 17.9999 34.9637C17.9999 34.5636 18.2666 34.2969 18.6667 34.2969H21.3333C21.7334 34.2969 22.0001 34.5636 22.0001 34.9637C22.0001 35.3635 21.7334 35.6302 21.3333 35.6302Z" fill="#8697CB"/>
<path d="M16.0001 35.6302H7.99988C7.6001 35.6302 7.33337 35.3635 7.33337 34.9637C7.33337 34.5636 7.6001 34.2969 7.99988 34.2969H16.0001C16.4001 34.2969 16.6666 34.5636 16.6666 34.9637C16.6666 35.3635 16.4001 35.6302 16.0001 35.6302Z" fill="#8697CB"/>
<path d="M2.66663 29.63H4.20013C4.73328 28.0968 6.19995 26.9634 7.99988 26.9634H2.00012V28.9635C2.00012 29.3633 2.26654 29.63 2.66663 29.63Z" fill="#F0C419"/>
<path d="M7.99988 26.9634C9.73328 26.9634 11.2 28.0968 11.7999 29.63H24.6667V26.9634H7.99988Z" fill="#F0C419"/>
<path d="M32.0001 35.6301C29.4 35.6301 27.3334 33.5634 27.3334 30.9633C27.3334 28.3635 29.4 26.2969 32.0001 26.2969C34.5999 26.2969 36.6666 28.3635 36.6666 30.9633C36.6666 33.5634 34.5999 35.6301 32.0001 35.6301Z" fill="#35495E"/>
<path d="M32.6666 32.9638H31.3333C30.6 32.9638 30 32.3638 30 31.6305V30.2972C30 29.5638 30.6 28.9639 31.3333 28.9639H32.6666C33.4 28.9639 33.9999 29.5638 33.9999 30.2972V31.6305C33.9999 32.3638 33.4 32.9638 32.6666 32.9638Z" fill="#BDC3C7"/>
<path d="M25.3333 8.29681H1.33331C0.933228 8.29681 0.666809 8.03009 0.666809 7.63031V4.96368C0.666809 4.5636 0.933228 4.29688 1.33331 4.29688H25.3333C25.7333 4.29688 26.0001 4.5636 26.0001 4.96368V7.63031C26.0001 8.03009 25.7333 8.29681 25.3333 8.29681Z" fill="#805333"/>
<path d="M16.0001 14.297H10.6669C9.93353 14.297 9.33325 13.697 9.33325 12.9637C9.33325 12.2303 9.93353 11.6304 10.6669 11.6304H16.0001C16.7335 11.6304 17.3334 12.2303 17.3334 12.9637C17.3334 13.697 16.7335 14.297 16.0001 14.297Z" fill="white"/>
<path d="M9.33325 24.2972C8.93347 24.2972 8.66675 24.0305 8.66675 23.6304V17.6307C8.66675 17.2306 8.93347 16.9639 9.33325 16.9639C9.73334 16.9639 10.0001 17.2306 10.0001 17.6307V23.6304C10.0001 24.0305 9.73334 24.2972 9.33325 24.2972Z" fill="white"/>
<path d="M7.3334 20.2972C7.13351 20.2972 7.00015 20.2304 6.86679 20.097C6.60007 19.8306 6.60007 19.4305 6.86679 19.1638L8.86661 17.1637C9.13333 16.8973 9.53342 16.8973 9.80014 17.1637C10.0666 17.4304 10.0666 17.8305 9.80014 18.0972L7.80002 20.097C7.66666 20.2304 7.53329 20.2972 7.3334 20.2972Z" fill="white"/>
<path d="M11.3333 20.2972C11.1335 20.2972 11.0001 20.2304 10.8667 20.097L8.86661 18.0972C8.59988 17.8305 8.59988 17.4304 8.86661 17.1637C9.13333 16.8973 9.53342 16.8973 9.80014 17.1637L11.8 19.1638C12.0667 19.4305 12.0667 19.8306 11.8 20.097C11.6666 20.2304 11.5332 20.2972 11.3333 20.2972Z" fill="white"/>
<path d="M17.3334 24.2972C16.9333 24.2972 16.6666 24.0305 16.6666 23.6304V17.6307C16.6666 17.2306 16.9333 16.9639 17.3334 16.9639C17.7335 16.9639 17.9999 17.2306 17.9999 17.6307V23.6304C17.9999 24.0305 17.7335 24.2972 17.3334 24.2972Z" fill="white"/>
<path d="M15.3333 20.2972C15.1334 20.2972 15 20.2304 14.8667 20.097C14.5999 19.8306 14.5999 19.4305 14.8667 19.1638L16.8668 17.1637C17.1335 16.8973 17.5333 16.8973 17.8 17.1637C18.0667 17.4304 18.0667 17.8305 17.8 18.0972L15.7999 20.097C15.6668 20.2304 15.5335 20.2972 15.3333 20.2972Z" fill="white"/>
<path d="M19.3332 20.2972C19.1333 20.2972 19 20.2304 18.8666 20.097L16.8668 18.0972C16.6001 17.8305 16.6001 17.4304 16.8668 17.1637C17.1335 16.8973 17.5333 16.8973 17.8 17.1637L19.8001 19.1638C20.0666 19.4305 20.0666 19.8306 19.8001 20.097C19.6668 20.2304 19.5334 20.2972 19.3332 20.2972Z" fill="white"/>
<path d="M7.99988 35.6301C5.40009 35.6301 3.33344 33.5634 3.33344 30.9633C3.33344 28.3635 5.40009 26.2969 7.99988 26.2969C10.6 26.2969 12.6666 28.3635 12.6666 30.9633C12.6666 33.5634 10.6 35.6301 7.99988 35.6301Z" fill="#35495E"/>
<path d="M8.66669 32.9638H7.33337C6.60004 32.9638 6.00006 32.3638 6.00006 31.6305V30.2972C6.00006 29.5638 6.60004 28.9639 7.33337 28.9639H8.66669C9.40002 28.9639 10 29.5638 10 30.2972V31.6305C10 32.3638 9.40002 32.9638 8.66669 32.9638Z" fill="#BDC3C7"/>
</svg>
