<svg width="70" height="70" viewBox="0 0 70 70" fill="none" xmlns="http://www.w3.org/2000/svg">
<path d="M70 22.5806V10.1613C70 9.53834 69.4956 9.03226 68.871 9.03226H49.2595C46.7159 3.70078 41.2896 0 35 0C28.7104 0 23.2841 3.70078 20.7405 9.03226H1.12903C0.504426 9.03226 0 9.53834 0 10.1613V22.5806C0 24.5802 0.875992 26.374 2.25806 27.6161V63.2258H1.12903C0.504426 63.2258 0 63.7302 0 64.3548V68.871C0 69.4956 0.504426 70 1.12903 70H68.871C69.4956 70 70 69.4956 70 68.871V64.3548C70 63.7302 69.4956 63.2258 68.871 63.2258H67.7419V27.6161C69.124 26.374 70 24.5802 70 22.5806ZM67.7419 22.5806C67.7419 25.0714 65.7165 27.0968 63.2258 27.0968C60.7351 27.0968 58.7097 25.0714 58.7097 22.5806V11.2903H67.7419V22.5806ZM56.4516 11.2903V22.5806C56.4516 25.0714 54.4262 27.0968 51.9355 27.0968C50.2827 27.0968 48.7921 26.1971 47.9988 24.7775C49.7656 22.2262 50.8064 19.1373 50.8064 15.8065C50.8064 14.2369 50.5694 12.7231 50.1405 11.2903H56.4516ZM35 2.25806C42.471 2.25806 48.5484 8.33543 48.5484 15.8065C48.5484 23.2775 42.471 29.3548 35 29.3548C27.529 29.3548 21.4516 23.2775 21.4516 15.8065C21.4516 8.33543 27.529 2.25806 35 2.25806ZM22.0023 24.7786C21.2157 26.1899 19.7255 27.0968 18.0645 27.0968C15.5738 27.0968 13.5484 25.0714 13.5484 22.5806V11.2903H19.8595C19.4306 12.7231 19.1935 14.2369 19.1935 15.8065C19.1935 19.1384 20.2355 22.2273 22.0023 24.7786ZM2.25806 11.2903H11.2903V22.5806C11.2903 25.0714 9.2649 27.0968 6.77419 27.0968C4.28349 27.0968 2.25806 25.0714 2.25806 22.5806V11.2903ZM67.7419 67.7419H2.25806V65.4839H67.7419V67.7419ZM22.5806 63.2258H9.03226V42.9032H22.5806V63.2258ZM65.4839 63.2258H24.8387V41.7742C24.8387 41.1496 24.3343 40.6452 23.7097 40.6452H7.90323C7.27862 40.6452 6.77419 41.1496 6.77419 41.7742V63.2258H4.51613V28.9596C5.22398 29.2104 5.98145 29.3548 6.77419 29.3548C9.12928 29.3548 11.2043 28.1459 12.4194 26.3178C13.6344 28.147 15.7094 29.3548 18.0645 29.3548C20.2526 29.3548 22.251 28.3107 23.504 26.6216C26.3889 29.6856 30.469 31.6129 35 31.6129C39.5376 31.6129 43.6227 29.6801 46.5081 26.6089C47.7672 28.3068 49.7563 29.3548 51.9355 29.3548C54.2906 29.3548 56.3656 28.1459 57.5806 26.3178C58.7957 28.147 60.8707 29.3548 63.2258 29.3548C64.0186 29.3548 64.776 29.2104 65.4839 28.9596V63.2258Z" fill="#603D26"/>
<path d="M11.2903 49.6774H13.5483V54.1935H11.2903V49.6774Z" fill="#603D26"/>
<path d="M62.0968 33.871H30.4839C29.8593 33.871 29.3549 34.3771 29.3549 35V57.5806C29.3549 58.2053 29.8593 58.7097 30.4839 58.7097H62.0968C62.7214 58.7097 63.2258 58.2053 63.2258 57.5806V35C63.2258 34.3771 62.7214 33.871 62.0968 33.871ZM56.4516 47.4194H54.1936V44.0323C54.1936 43.4077 53.6891 42.9032 53.0645 42.9032H48.5484C47.9238 42.9032 47.4194 43.4077 47.4194 44.0323V47.4194H45.1613V44.0323C45.1613 43.4077 44.6569 42.9032 44.0323 42.9032H39.5161C38.8915 42.9032 38.3871 43.4077 38.3871 44.0323V47.4194H36.1291V40.6452H56.4516V47.4194ZM51.9355 47.4194H49.6774V45.1613H51.9355V47.4194ZM42.9032 47.4194H40.6452V45.1613H42.9032V47.4194ZM36.1291 49.6774H56.4516V56.4516H54.1936V53.0645C54.1936 52.4399 53.6891 51.9355 53.0645 51.9355H48.5484C47.9238 51.9355 47.4194 52.4399 47.4194 53.0645V56.4516H45.1613V53.0645C45.1613 52.4399 44.6569 51.9355 44.0323 51.9355H39.5161C38.8915 51.9355 38.3871 52.4399 38.3871 53.0645V56.4516H36.1291V49.6774ZM51.9355 56.4516H49.6774V54.1936H51.9355V56.4516ZM42.9032 56.4516H40.6452V54.1936H42.9032V56.4516ZM60.9678 56.4516H58.7097V39.5161C58.7097 38.8915 58.2053 38.3871 57.5807 38.3871H35C34.3754 38.3871 33.871 38.8915 33.871 39.5161V56.4516H31.6129V36.129H60.9678V56.4516Z" fill="#603D26"/>
<path d="M27.0968 24.8387H42.9033C43.5279 24.8387 44.0323 24.3327 44.0323 23.7097V14.6774C44.0323 14.0545 43.5279 13.5484 42.9033 13.5484H38.1793C38.3061 13.1939 38.3871 12.8169 38.3871 12.4194C38.3871 10.9497 37.44 9.70761 36.1291 9.24012V8.83933C36.1291 8.53778 36.2465 8.25332 36.4598 8.03997L38.0564 6.44345L36.4598 4.84692L34.8633 6.44345C34.2233 7.08239 33.871 7.93357 33.871 8.83933V9.24122C32.56 9.70871 31.6129 10.9508 31.6129 12.4205C31.6129 12.818 31.694 13.195 31.8208 13.5495H27.0968C26.4722 13.5495 25.9678 14.0556 25.9678 14.6785V23.7108C25.9678 24.3327 26.4722 24.8387 27.0968 24.8387ZM28.2258 22.5807V20.3226H41.7742V22.5807H28.2258ZM33.871 12.4194C33.871 11.7975 34.3771 11.2903 35 11.2903C35.623 11.2903 36.1291 11.7975 36.1291 12.4194C36.1291 13.0412 35.623 13.5484 35 13.5484C34.3771 13.5484 33.871 13.0412 33.871 12.4194ZM41.7742 15.8065V18.0645H28.2258V15.8065H41.7742Z" fill="#603D26"/>
</svg>
