<svg width="70" height="70" viewBox="0 0 70 70" fill="none" xmlns="http://www.w3.org/2000/svg">
<g clip-path="url(#clip0)">
<path d="M67.6667 60.6667V37.3334C67.6667 35.4004 66.0997 33.8334 64.1667 33.8334H60.6667V23.3334C60.6667 21.4004 59.0997 19.8334 57.1667 19.8334H47.4273C52.5712 15.8247 55.6687 12.7704 55.9755 8.67418C56.2823 4.57802 53.7378 1.23552 50.043 0.925182C47.976 0.763377 45.9469 1.5457 44.5235 3.05318C43.3614 1.32803 41.484 0.218134 39.4123 0.0315146C37.8183 -0.114783 36.2314 0.377401 35 1.40002C33.7679 0.381323 32.1852 -0.113019 30.5923 0.023348C28.519 0.215241 26.6401 1.32456 25.4707 3.04735C24.0435 1.54482 22.0164 0.763472 19.95 0.919348C16.2598 1.22968 13.7118 4.56635 14.0233 8.68002C14.3348 12.7634 17.4335 15.8189 22.582 19.8334H12.8333C10.9003 19.8334 9.33333 21.4004 9.33333 23.3334V33.8334H5.83333C3.90034 33.8334 2.33333 35.4004 2.33333 37.3334V60.6667C1.04467 60.6667 0 61.7114 0 63V64.1667C0.00385714 67.3868 2.61327 69.9962 5.83333 70H64.1667C67.3867 69.9962 69.9961 67.3868 70 64.1667V63C70 61.7114 68.9553 60.6667 67.6667 60.6667ZM57.3148 52.374C56.5883 51.6286 55.5642 51.2509 54.5277 51.3462C52.6902 51.5497 51.3077 53.1155 51.3333 54.964V63C51.3298 63.3274 51.1908 63.6386 50.9493 63.8597C50.7079 64.0807 50.3857 64.1919 50.0593 64.1667C49.4289 64.0645 48.9741 63.5075 49 62.8694V50.1667C49 48.2337 47.433 46.6667 45.5 46.6667H4.66667V42.0525L5.85083 42.973C7.1148 43.9563 8.88487 43.9563 10.1488 42.973L11.7822 41.7025C12.2033 41.3754 12.7926 41.3754 13.2137 41.7025L14.847 42.973C16.1107 43.9557 17.8801 43.9557 19.1438 42.973L20.7772 41.7014C21.1983 41.3742 21.7876 41.3742 22.2087 41.7014L23.842 42.9719C25.1062 43.9557 26.877 43.9557 28.1412 42.9719L29.7745 41.7002C30.1958 41.3724 30.7858 41.3724 31.2072 41.7002L32.8405 42.9707C34.1045 43.9539 35.8745 43.9539 37.1385 42.9707L38.7718 41.7002C39.1932 41.3724 39.7832 41.3724 40.2045 41.7002L41.8378 42.9707C43.102 43.9545 44.8728 43.9545 46.137 42.9707L47.7703 41.699C48.1917 41.3713 48.7817 41.3713 49.203 41.699L50.8363 42.9695C52.1003 43.9528 53.8704 43.9528 55.1343 42.9695L56.7677 41.699C57.1888 41.3719 57.7781 41.3719 58.1992 41.699L59.8325 42.9695C61.0956 43.9553 62.8674 43.9553 64.1305 42.9695L65.3333 42.0525V46.6667H64.1667C62.2337 46.6667 60.6667 48.2337 60.6667 50.1667V61.8334C60.6631 62.1607 60.5241 62.4719 60.2827 62.693C60.0413 62.9141 59.719 63.0252 59.3927 63C58.7622 62.8979 58.3074 62.3409 58.3333 61.7027V54.8334C58.3407 53.9095 57.9732 53.0221 57.3148 52.374ZM53.6667 60.6667V54.964C53.6406 54.3262 54.0948 53.7694 54.7248 53.6667C55.0517 53.6401 55.3748 53.7507 55.6167 53.9721C55.8586 54.1934 55.9975 54.5055 56 54.8334V60.6667H53.6667ZM63 50.1667C63 49.5224 63.5223 49 64.1667 49H65.3333V60.6667H63V50.1667ZM39.2128 2.35668C41.0376 2.61102 42.5855 3.82525 43.267 5.53702C43.4269 5.95773 43.8146 6.24893 44.2632 6.28532C44.7118 6.3217 45.1414 6.09679 45.367 5.70735C46.3057 4.13995 48.0172 3.20104 49.8435 3.25152C52.2235 3.45102 53.858 5.70152 53.6445 8.50152C53.3692 12.1812 49.7362 15.1819 43.7803 19.6887C43.4579 19.9189 43.0143 19.8724 42.7467 19.5802C40.3905 17.2824 38.2511 14.7724 36.3557 12.082C37.2946 10.4556 37.7379 8.59028 37.6308 6.71535C37.541 5.46439 37.1608 4.2516 36.5202 3.17335C37.2748 2.55641 38.2427 2.26285 39.2128 2.35668ZM16.352 8.50385C16.1397 5.70385 17.7707 3.44402 20.1472 3.24452C20.2755 3.23285 20.4003 3.22818 20.524 3.22818C22.2131 3.32289 23.7456 4.24777 24.6167 5.69802C24.8381 6.09168 25.2691 6.31971 25.7192 6.28135C26.17 6.24642 26.5601 5.9541 26.7202 5.53118C27.4119 3.8209 28.9619 2.60828 30.7883 2.34852C31.8052 2.25115 32.8174 2.57548 33.5883 3.24568C34.6181 4.18452 35.2361 5.49167 35.308 6.88335C35.5868 10.5549 32.4485 14.1307 27.2475 19.5837C26.9745 19.8676 26.534 19.9069 26.215 19.6759C20.2638 15.1667 16.6297 12.1684 16.352 8.50385ZM35 14.2427C36.4609 16.2131 38.0552 18.081 39.7717 19.8334H30.2272C31.9365 18.0742 33.5307 16.2068 35 14.2427ZM12.8333 22.1667H43.302H43.337H43.379H57.1667C57.811 22.1667 58.3333 22.689 58.3333 23.3334V25.8394C56.7246 25.1856 54.8904 25.4281 53.5068 26.4775L50.9098 28.4609C49.9766 29.1612 48.693 29.1612 47.7598 28.4609L45.1593 26.4775C43.3943 25.1305 40.9464 25.1305 39.1813 26.4775L36.582 28.4609C35.6451 29.1632 34.3572 29.1632 33.4203 28.4609L30.821 26.4775C29.056 25.1305 26.608 25.1305 24.843 26.4775L22.2437 28.4609C21.3105 29.1612 20.0269 29.1612 19.0937 28.4609L16.4943 26.4775C15.1109 25.4269 13.2759 25.1838 11.6667 25.8382V23.3334C11.6667 22.689 12.189 22.1667 12.8333 22.1667ZM11.6667 28.5332L11.9338 28.3314C12.8629 27.6187 14.1548 27.6187 15.0838 28.3314L17.6878 30.3147C19.4565 31.6459 21.8925 31.6459 23.6612 30.3147L26.2663 28.3314C27.1937 27.6214 28.4819 27.6214 29.4093 28.3314L32.0157 30.3147C33.7876 31.6476 36.2276 31.6476 37.9995 30.3147L40.6047 28.3314C41.5321 27.6214 42.8203 27.6214 43.7477 28.3314L46.354 30.3147C48.1229 31.6451 50.5585 31.6451 52.3273 30.3147L54.929 28.3314C55.8585 27.6199 57.1495 27.6199 58.079 28.3314L58.3403 28.5285V33.8334H11.6667V28.5332ZM5.83333 36.1667H64.1667C64.811 36.1667 65.3333 36.689 65.3333 37.3334V39.095L62.7165 41.1309C62.2952 41.4586 61.7052 41.4586 61.2838 41.1309L59.6505 39.8604C58.3863 38.8765 56.6155 38.8765 55.3513 39.8604L53.718 41.132C53.2967 41.4598 52.7067 41.4598 52.2853 41.132L50.652 39.8615C49.388 38.8783 47.618 38.8783 46.354 39.8615L44.7207 41.132C44.2996 41.4592 43.7103 41.4592 43.2892 41.132L41.6558 39.8615C40.3919 38.8783 38.6218 38.8783 37.3578 39.8615L35.7245 41.1332C35.3045 41.4622 34.7142 41.4622 34.2942 41.1332L32.6608 39.8627C31.3969 38.8795 29.6268 38.8795 28.3628 39.8627L26.7295 41.1332C26.3084 41.4603 25.7191 41.4603 25.298 41.1332L23.6647 39.8627C22.4018 38.8776 20.6307 38.8776 19.3678 39.8627L17.7345 41.1344C17.3134 41.4615 16.7241 41.4615 16.303 41.1344L14.6697 39.8639C13.4055 38.88 11.6347 38.88 10.3705 39.8639L8.73717 41.1355C8.31584 41.4633 7.72582 41.4633 7.3045 41.1355L4.66667 39.095V37.3334C4.66667 36.689 5.189 36.1667 5.83333 36.1667ZM4.66667 49H45.5C46.1443 49 46.6667 49.5224 46.6667 50.1667V60.6667H4.66667V49ZM67.6667 64.1667C67.6667 66.0997 66.0997 67.6667 64.1667 67.6667H5.83333C3.90034 67.6667 2.33333 66.0997 2.33333 64.1667V63H46.6783C46.7141 64.7967 48.0762 66.2885 49.8622 66.4872C49.9637 66.4965 50.064 66.5 50.1643 66.5C52.0928 66.4892 53.6535 64.9285 53.6643 63H56.231C56.6864 64.28 57.8381 65.1833 59.1897 65.3205C60.2148 65.4153 61.2286 65.0459 61.9523 64.3137C62.3289 63.9465 62.6149 63.4968 62.7877 63H67.6667V64.1667Z" fill="#603D26"/>
</g>
<defs>
<clipPath id="clip0">
<rect width="70" height="70" fill="white"/>
</clipPath>
</defs>
</svg>
