<svg width="40" height="40" viewBox="0 0 40 40" fill="none" xmlns="http://www.w3.org/2000/svg">
<path d="M33.5749 2.69547H6.38603C3.54332 2.69547 1.23047 5.00786 1.23047 7.85103V24.4901C1.23047 27.3268 3.53325 29.6355 6.36772 29.6456V37.1962L17.2188 29.6456H33.5749C36.4176 29.6456 38.7305 27.3328 38.7305 24.4901V7.85103C38.7305 5.00786 36.4176 2.69547 33.5749 2.69547ZM36.5332 24.4901C36.5332 26.1211 35.2061 27.4483 33.5749 27.4483H16.5294L8.56499 32.9905V27.4483H6.38603C4.75479 27.4483 3.42773 26.1211 3.42773 24.4901V7.85103C3.42773 6.21956 4.75479 4.89273 6.38603 4.89273H33.5749C35.2061 4.89273 36.5332 6.21956 36.5332 7.85103V24.4901Z" fill="#603D26"/>
<path d="M11.2669 10.4594H28.6936V12.6566H11.2669V10.4594Z" fill="#603D26"/>
<path d="M11.2669 15.1469H28.6936V17.3441H11.2669V15.1469Z" fill="#603D26"/>
<path d="M11.2669 19.8344H28.6936V22.0316H11.2669V19.8344Z" fill="#603D26"/>
</svg>
