<svg width="52" height="38" viewBox="0 0 52 38" fill="none" xmlns="http://www.w3.org/2000/svg">
<path d="M5.16637 37.0833H5.16667H36.8333H36.8336C39.2715 37.0804 41.2471 35.1049 41.25 32.667V32.6667V28.75H46.8333H46.8336C49.2715 28.7471 51.2471 26.7715 51.25 24.3336V24.3333V5.16667V5.16637C51.2471 2.72849 49.2715 0.75292 46.8336 0.75H46.8333H24.3333C23.735 0.75 23.25 1.23503 23.25 1.83333C23.25 2.43164 23.735 2.91667 24.3333 2.91667H46.8333C48.076 2.91667 49.0833 3.92403 49.0833 5.16667V16.5833H41.25V13.5V13.4997C41.2471 11.0618 39.2715 9.08625 36.8336 9.08333H36.8333H12.9167V5.16667C12.9167 3.92403 13.924 2.91667 15.1667 2.91667H20.1667C20.765 2.91667 21.25 2.43164 21.25 1.83333C21.25 1.23502 20.765 0.75 20.1667 0.75L15.1667 0.75L15.1664 0.75C12.7285 0.75292 10.7529 2.72849 10.75 5.16637V5.16667V9.08333H5.16667H5.16637C2.72849 9.08625 0.75292 11.0618 0.75 13.4997V13.5L0.75 32.6667L0.75 32.667C0.75292 35.1049 2.72849 37.0804 5.16637 37.0833ZM36.8333 34.9167H5.16667C3.92403 34.9167 2.91667 33.9093 2.91667 32.6667V32.0833H39.0833V32.6667C39.0833 33.9093 38.076 34.9167 36.8333 34.9167ZM2.91667 27.0833H39.0833V29.9167H2.91667V27.0833ZM46.8333 26.5833H41.25V23.75H49.0833V24.3333C49.0833 25.576 48.076 26.5833 46.8333 26.5833ZM49.0833 18.75V21.5833H41.25V18.75H49.0833ZM5.16667 11.25H36.8333C38.076 11.25 39.0833 12.2574 39.0833 13.5V24.9167H2.91667V13.5C2.91667 12.2574 3.92403 11.25 5.16667 11.25Z" fill="#603D26" stroke="#603D26" stroke-width="0.5"/>
<path d="M32.2504 13.25C31.1944 13.2472 30.1691 13.5937 29.3328 14.2323C27.7008 12.9937 25.4542 12.9159 23.7358 14.0586C21.9606 15.239 21.1684 17.4431 21.786 19.4836C22.4036 21.524 24.285 22.9188 26.4168 22.9167C27.472 22.9172 28.4962 22.571 29.3331 21.9345C30.1693 22.573 31.1945 22.9194 32.2504 22.9167M32.2504 13.25C34.9196 13.2502 37.0834 15.4141 37.0834 18.0833C37.0834 20.7526 34.9196 22.9165 32.2504 22.9167M32.2504 13.25C32.2505 13.25 32.2506 13.25 32.2507 13.25L32.25 13.5V13.25C32.2502 13.25 32.2503 13.25 32.2504 13.25ZM32.2504 22.9167C32.2503 22.9167 32.2502 22.9167 32.25 22.9167V22.6667L32.2507 22.9167C32.2506 22.9167 32.2505 22.9167 32.2504 22.9167ZM32.2498 15.4167H32.25C33.7228 15.4167 34.9167 16.6106 34.9167 18.0833C34.9167 19.5561 33.7228 20.75 32.25 20.75H32.2498C31.7021 20.7505 31.1697 20.58 30.7258 20.2649C31.4241 18.8948 31.4241 17.2718 30.7258 15.9018C31.1697 15.5867 31.7021 15.4162 32.2498 15.4167ZM26.4167 15.4167C27.8895 15.4167 29.0834 16.6106 29.0834 18.0833C29.0834 19.5561 27.8895 20.75 26.4167 20.75C24.944 20.75 23.75 19.5561 23.75 18.0833C23.75 16.6106 24.944 15.4167 26.4167 15.4167Z" fill="#603D26" stroke="#603D26" stroke-width="0.5"/>
</svg>
