<svg width="45" height="45" viewBox="0 0 45 45" fill="none" xmlns="http://www.w3.org/2000/svg">
<g clip-path="url(#clip0)">
<path d="M12.9025 9.7234C12.9025 9.19613 13.33 8.76879 13.8571 8.76879C14.3842 8.76879 14.8117 9.19608 14.8117 9.72332L12.9025 9.7234ZM12.9025 9.7234C12.9025 10.4401 12.319 11.0235 11.6024 11.0235M12.9025 9.7234L11.6024 11.0235M11.6024 11.0235C10.8857 11.0235 10.3022 10.4401 10.3022 9.7234M11.6024 11.0235L10.3022 9.7234M10.3022 9.7234C10.3022 9.00674 10.8857 8.42328 11.6024 8.42328M10.3022 9.7234L11.6024 8.42328M11.6024 8.42328C12.1295 8.42328 12.557 7.99593 12.557 7.46866M11.6024 8.42328L12.557 7.46866M12.557 7.46866C12.557 6.94141 12.1296 6.51404 11.6024 6.51404M12.557 7.46866L11.6024 6.51404M11.6024 6.51404C9.83252 6.51404 8.3931 7.95356 8.3931 9.72332M11.6024 6.51404L8.3931 9.72332M8.3931 9.72332C8.3931 11.4931 9.83261 12.9326 11.6024 12.9326M8.3931 9.72332L11.6024 12.9326M11.6024 12.9326C13.3721 12.9326 14.8116 11.4931 14.8117 9.72337L11.6024 12.9326Z" fill="#603D26" stroke="#603D26" stroke-width="0.5"/>
<path d="M12.9025 17.9906C12.9025 17.4634 13.33 17.036 13.8571 17.036C14.3842 17.036 14.8117 17.4634 14.8117 17.9905L12.9025 17.9906ZM12.9025 17.9906C12.9025 18.7073 12.319 19.2908 11.6024 19.2908M12.9025 17.9906L11.6024 19.2908M11.6024 19.2908C10.8857 19.2908 10.3022 18.7073 10.3022 17.9906M11.6024 19.2908L10.3022 17.9906M10.3022 17.9906C10.3022 17.274 10.8857 16.6905 11.6024 16.6905M10.3022 17.9906L11.6024 16.6905M11.6024 16.6905C12.1295 16.6905 12.557 16.2632 12.557 15.7359M11.6024 16.6905L12.557 15.7359M12.557 15.7359C12.557 15.2086 12.1296 14.7813 11.6024 14.7813M12.557 15.7359L11.6024 14.7813M11.6024 14.7813C9.83252 14.7813 8.3931 16.2208 8.3931 17.9905M11.6024 14.7813L8.3931 17.9905M8.3931 17.9905C8.3931 19.7603 9.83261 21.1998 11.6024 21.1998M8.3931 17.9905L11.6024 21.1998M11.6024 21.1998C13.3721 21.1998 14.8116 19.7603 14.8117 17.9906L11.6024 21.1998Z" fill="#603D26" stroke="#603D26" stroke-width="0.5"/>
<path d="M22.1244 18.5392H16.8634C16.3363 18.5392 15.9088 18.9665 15.9088 19.4938C15.9088 20.0211 16.3362 20.4484 16.8634 20.4484H22.1244C22.6515 20.4484 23.079 20.0211 23.079 19.4938C23.079 18.9666 22.6517 18.5392 22.1244 18.5392Z" fill="#603D26" stroke="#603D26" stroke-width="0.5"/>
<path d="M22.1244 15.5329H16.8634C16.3363 15.5329 15.9088 15.9603 15.9088 16.4875C15.9088 17.0148 16.3362 17.4422 16.8634 17.4422H22.1244C22.6515 17.4422 23.079 17.0148 23.079 16.4875C23.079 15.9603 22.6517 15.5329 22.1244 15.5329Z" fill="#603D26" stroke="#603D26" stroke-width="0.5"/>
<path d="M20.6213 26.8063H16.8634C16.3363 26.8063 15.9088 27.2337 15.9088 27.7609C15.9088 28.2882 16.3362 28.7155 16.8634 28.7155H20.6213C21.1484 28.7155 21.5759 28.2882 21.5759 27.7609C21.5759 27.2337 21.1484 26.8063 20.6213 26.8063Z" fill="#603D26" stroke="#603D26" stroke-width="0.5"/>
<path d="M22.1244 23.8001H16.8634C16.3363 23.8001 15.9088 24.2275 15.9088 24.7547C15.9088 25.282 16.3362 25.7094 16.8634 25.7094H22.1244C22.6515 25.7094 23.079 25.282 23.079 24.7547C23.079 24.2275 22.6517 23.8001 22.1244 23.8001Z" fill="#603D26" stroke="#603D26" stroke-width="0.5"/>
<path d="M28.8886 10.2719H16.8634C16.3363 10.2719 15.9088 10.6992 15.9088 11.2265C15.9088 11.7538 16.3362 12.1811 16.8634 12.1811H28.8885C29.4156 12.1811 29.8431 11.7538 29.8431 11.2265C29.8431 10.6993 29.4157 10.2719 28.8886 10.2719Z" fill="#603D26" stroke="#603D26" stroke-width="0.5"/>
<path d="M25.8823 7.26562H16.8634C16.3363 7.26562 15.9088 7.69297 15.9088 8.22024C15.9088 8.7475 16.3362 9.17486 16.8634 9.17486H25.8823C26.4094 9.17486 26.8369 8.74752 26.8369 8.22024C26.8369 7.69299 26.4095 7.26562 25.8823 7.26562Z" fill="#603D26" stroke="#603D26" stroke-width="0.5"/>
<path d="M12.9025 26.2579C12.9025 25.7306 13.33 25.3033 13.8571 25.3033C14.3842 25.3033 14.8117 25.7306 14.8117 26.2578L12.9025 26.2579ZM12.9025 26.2579C12.9025 26.9746 12.319 27.558 11.6024 27.558M12.9025 26.2579L11.6024 27.558M11.6024 27.558C10.8857 27.558 10.3022 26.9746 10.3022 26.2579M11.6024 27.558L10.3022 26.2579M10.3022 26.2579C10.3022 25.5412 10.8857 24.9578 11.6024 24.9578M10.3022 26.2579L11.6024 24.9578M11.6024 24.9578C12.1295 24.9578 12.557 24.5304 12.557 24.0032M11.6024 24.9578L12.557 24.0032M12.557 24.0032C12.557 23.4759 12.1296 23.0485 11.6024 23.0485M12.557 24.0032L11.6024 23.0485M11.6024 23.0485C9.83252 23.0485 8.3931 24.4881 8.3931 26.2578M11.6024 23.0485L8.3931 26.2578M8.3931 26.2578C8.3931 28.0276 9.83261 29.4671 11.6024 29.4671M8.3931 26.2578L11.6024 29.4671M11.6024 29.4671C13.3721 29.4671 14.8116 28.0276 14.8117 26.2579L11.6024 29.4671Z" fill="#603D26" stroke="#603D26" stroke-width="0.5"/>
<path d="M31.8943 -0.25H6.3411C4.98575 -0.25 3.88338 0.852274 3.88338 2.20772V33.7735C3.88338 35.1289 4.98566 36.2312 6.3411 36.2312H19.1178C19.6449 36.2312 20.0724 35.8038 20.0724 35.2766C20.0724 34.7494 19.645 34.322 19.1178 34.322H6.3411C6.03884 34.322 5.79253 34.0756 5.79253 33.7734V2.20772C5.79253 1.90546 6.03884 1.65915 6.3411 1.65915H31.8943C32.1966 1.65915 32.4429 1.90546 32.4429 2.20772V25.5064C32.4429 26.0335 32.8703 26.461 33.3975 26.461C33.9247 26.461 34.3521 26.0337 34.3521 25.5064V2.20772C34.3521 0.85228 33.2498 -0.25 31.8943 -0.25Z" fill="#603D26" stroke="#603D26" stroke-width="0.5"/>
<path d="M38.5718 28.3239L38.5717 28.3239C37.9439 28.2613 37.3161 28.4091 36.7882 28.7362C36.3279 28.0997 35.6236 27.6535 34.814 27.5724L34.8138 27.5724C34.1859 27.5098 33.5582 27.6576 33.0303 27.9846C32.57 27.3481 31.8657 26.9019 31.0561 26.8208L31.0561 26.8208C30.6418 26.7795 30.228 26.8296 29.8429 26.9623V18.3664C29.8429 17.5672 29.5031 16.8015 28.9101 16.265C28.3173 15.7286 27.5194 15.4674 26.7205 15.5473L26.7205 15.5473C25.2825 15.6914 24.1759 16.9838 24.1759 18.4736V27.3657L22.1779 29.3637C21.016 30.5255 20.5465 32.1757 20.9229 33.7752L22.4954 40.4582C23.1591 43.2791 25.6478 45.2501 28.5457 45.2501H34.9008C38.3283 45.2501 41.1164 42.4621 41.1164 39.0346V31.2503C41.1165 29.7604 40.0099 28.4679 38.5718 28.3239ZM39.2077 38.7844H39.2072V39.0344C39.2072 41.4087 37.2752 43.3407 34.9009 43.3407H28.5458C26.537 43.3407 24.8139 41.976 24.3538 40.0206L22.7814 33.3377L22.538 33.395L22.7814 33.3377C22.5572 32.3853 22.836 31.4053 23.5279 30.7135L24.1759 30.0654V31.8945C24.1759 32.4216 24.6032 32.8491 25.1305 32.8491C25.6578 32.8491 26.0851 32.4218 26.0851 31.8945V18.4735C26.0851 17.9245 26.4695 17.4912 26.9108 17.4471L26.9109 17.4471C27.18 17.42 27.4334 17.5033 27.6292 17.6806L27.6293 17.6807C27.8228 17.8558 27.9338 18.106 27.9338 18.3665V30.7673C27.9338 31.2944 28.3612 31.7219 28.8885 31.7219C29.4157 31.7219 29.8431 31.2946 29.8431 30.7673V29.6399C29.8431 29.3794 29.954 29.1292 30.1476 28.9542L30.1476 28.9541C30.3437 28.7768 30.597 28.6934 30.8659 28.7205L30.8661 28.7205C31.3073 28.7647 31.6918 29.198 31.6918 29.7471V31.5187C31.6918 32.0458 32.1191 32.4733 32.6464 32.4733C33.1735 32.4733 33.601 32.046 33.601 31.5187V30.3913C33.601 30.1308 33.712 29.8806 33.9055 29.7055L33.9055 29.7055C34.1016 29.5282 34.3549 29.4449 34.6239 29.4719L34.624 29.4719C35.0652 29.5161 35.4497 29.9494 35.4497 30.4984V32.2701C35.4497 32.7973 35.8771 33.2248 36.4043 33.2248C36.9315 33.2248 37.359 32.7974 37.359 32.2701V31.1428C37.359 30.8823 37.4699 30.6321 37.6635 30.457C37.8596 30.2796 38.1127 30.1963 38.3817 30.2234L38.382 30.2235C38.8232 30.2676 39.2077 30.7009 39.2077 31.2499V38.7844Z" fill="#603D26" stroke="#603D26" stroke-width="0.5"/>
</g>
<defs>
<clipPath id="clip0">
<rect width="45" height="45" fill="white"/>
</clipPath>
</defs>
</svg>
