<svg width="40" height="40" viewBox="0 0 40 40" fill="none" xmlns="http://www.w3.org/2000/svg">
<g clip-path="url(#clip0)">
<path d="M39.8283 25.537C36.3238 18.7038 28.6968 12.5 20.0005 12.5C11.2431 12.5 3.63828 18.7795 0.172652 25.537C-0.0568793 25.9846 -0.0568793 26.5154 0.172652 26.963C3.6771 33.7962 11.3041 40 20.0005 40C29.8473 40 37.1057 32.2717 39.8283 26.963C40.0578 26.5154 40.0578 25.9846 39.8283 25.537ZM20.0005 36.875C12.9086 36.875 6.95562 32.1635 3.36328 26.25C6.91585 20.402 12.8498 15.625 20.0005 15.625C27.1205 15.625 33.0655 20.3699 36.6376 26.25C33.0287 32.1905 27.0519 36.875 20.0005 36.875ZM0.492886 8.68531C1.07023 8.04398 2.05828 7.99227 2.6996 8.56969L6.1796 11.703C6.82085 12.2805 6.87265 13.2684 6.29523 13.9098C5.71781 14.5512 4.72976 14.6027 4.08851 14.0254L0.608511 10.892C-0.0327387 10.3146 -0.0845355 9.32664 0.492886 8.68531ZM18.438 7.8125V1.5625C18.438 0.699609 19.1375 0 20.0005 0C20.8634 0 21.563 0.699609 21.563 1.5625V7.8125C21.563 8.67539 20.8634 9.375 20.0005 9.375C19.1375 9.375 18.438 8.67539 18.438 7.8125ZM8.53171 4.33242C8.1807 3.54406 8.53523 2.62047 9.32359 2.26945C10.112 1.91844 11.0355 2.27297 11.3866 3.06133L13.7762 8.42852C14.1272 9.2168 13.7726 10.1405 12.9843 10.4915C12.1982 10.8414 11.2735 10.4904 10.9213 9.69961L8.53171 4.33242ZM33.7057 13.9098C33.1283 13.2685 33.18 12.2805 33.8213 11.703L37.3013 8.56969C37.9426 7.99227 38.9306 8.04398 39.508 8.68531C40.0855 9.32656 40.0337 10.3145 39.3924 10.892L35.9124 14.0254C35.2709 14.6029 34.283 14.5509 33.7057 13.9098ZM26.2247 8.42852L28.6143 3.06133C28.9653 2.27297 29.8889 1.91844 30.6773 2.26945C31.4656 2.62047 31.8202 3.54406 31.4691 4.33242L29.0795 9.69953C28.7269 10.4915 27.8014 10.8409 27.0166 10.4915C26.2283 10.1405 25.8737 9.21688 26.2247 8.42852ZM20.0005 18.5742C15.768 18.5742 12.3247 22.0176 12.3247 26.25C12.3247 30.4824 15.768 33.9258 20.0005 33.9258C24.2329 33.9258 27.6762 30.4824 27.6762 26.25C27.6762 22.0176 24.2329 18.5742 20.0005 18.5742ZM20.0005 30.8008C17.4912 30.8008 15.4497 28.7593 15.4497 26.25C15.4497 23.7407 17.4912 21.6992 20.0005 21.6992C22.5098 21.6992 24.5512 23.7407 24.5512 26.25C24.5512 28.7593 22.5098 30.8008 20.0005 30.8008Z" fill="#603D26"/>
</g>
<defs>
<clipPath id="clip0">
<rect width="40" height="40" fill="white"/>
</clipPath>
</defs>
</svg>
