<svg width="40" height="40" viewBox="0 0 40 40" fill="none" xmlns="http://www.w3.org/2000/svg">
<g clip-path="url(#clip0)">
<path d="M1.44836 36.8721L4.84415 39.9997H35.157L38.5528 36.8721" fill="#57BAE5"/>
<path d="M1.44836 36.8721L4.84415 39.9997H7.27672L3.88094 36.8721H1.44836Z" fill="#34A9D1"/>
<path d="M21.0333 6.06312C19.5926 5.65476 17.8743 6.04297 17.8743 7.48234V10.3866H22.1268V7.48234C22.1268 6.69547 21.6367 6.28078 21.0333 6.06312Z" fill="#57BAE5"/>
<path d="M21.2169 6.1378C20.0902 5.6278 17.8744 5.86679 17.8744 7.48202V10.3862H20.307V7.48202C20.3069 6.77686 20.7008 6.37108 21.2169 6.1378Z" fill="#34A9D1"/>
<path d="M31.8051 17.5891V14.3805C31.8051 13.5501 31.1319 12.877 30.3015 12.877H9.69936C8.86905 12.877 8.19592 13.5501 8.19592 14.3805V23.3023H31.8052V19.7031" fill="#7C5437"/>
<path d="M30.3014 12.877H20.5701C20.3588 16.5623 21.1239 20.1287 22.7275 23.3023H31.805C31.805 22.4519 31.805 15.3717 31.805 14.3805C31.805 13.5502 31.1319 12.877 30.3014 12.877Z" fill="#8E5E3D"/>
<path d="M26.7329 12.8771V11.1572C26.7329 10.6836 26.3491 10.2998 25.8754 10.2998H14.1256C13.652 10.2998 13.2681 10.6836 13.2681 11.1572V12.8771H26.7329Z" fill="#FF4B4E"/>
<path d="M25.8753 10.2998H20.882C20.7256 11.142 20.6205 12.0021 20.5702 12.8771H26.733V11.1572C26.7329 10.6837 26.3491 10.2998 25.8753 10.2998Z" fill="#FC5162"/>
<path d="M12.1321 12.877H9.69936C8.86905 12.877 8.19592 13.5501 8.19592 14.3805V23.3023H10.6285V14.3805C10.6285 13.5502 11.3016 12.877 12.1321 12.877Z" fill="#603D26"/>
<path d="M16.558 10.2998H14.1254C13.6519 10.2998 13.2679 10.6836 13.2679 11.1572V12.8771H15.7005V11.1572C15.7005 10.6837 16.0844 10.2998 16.558 10.2998Z" fill="#EF2235"/>
<path d="M19.9143 0.0104837C19.0168 0.398374 18.437 1.28041 18.437 2.25744C18.437 3.75658 19.7404 4.5222 20.0006 4.5222C20.2454 4.5222 21.5642 3.774 21.5642 2.25744C21.564 0.730718 20.1803 -0.104438 19.9143 0.0104837Z" fill="#F99830"/>
<path d="M30.3015 12.877H9.69948C9.01823 12.877 8.44284 13.3299 8.25815 13.951C8.17878 14.219 8.19589 14.2843 8.19589 15.533L10.9936 17.3507C11.981 17.9922 12.8454 17.6062 13.1505 17.427L15.0645 16.1834C15.0646 16.1834 15.0646 16.1834 15.0646 16.1833C15.9395 15.6148 16.7115 15.968 16.9725 16.1222C20.3363 18.3077 19.6491 18.3178 23.0285 16.1222C23.2895 15.968 24.0615 15.6148 24.9364 16.1833C24.9364 16.1834 24.9365 16.1834 24.9365 16.1834L26.8505 17.427C27.1555 17.6062 28.02 17.9921 29.0074 17.3507L31.8051 15.533V14.3805C31.8051 13.5499 31.1318 12.877 30.3015 12.877Z" fill="#FFC373"/>
<path d="M30.3014 12.877H20.5701C20.4803 14.4443 20.5643 15.9902 20.8289 17.5411C20.9258 17.492 20.745 17.606 23.0284 16.1223C23.2894 15.9682 24.0614 15.615 24.9363 16.1834C24.9363 16.1835 24.9364 16.1835 24.9364 16.1835L26.8504 17.4272C27.1554 17.6063 28.0199 17.9923 29.0073 17.3509L31.805 15.5331C31.805 14.267 31.8076 14.331 31.7972 14.2269C31.7201 13.4679 31.0796 12.877 30.3014 12.877Z" fill="#FCCA8D"/>
<path d="M10.6285 14.3801C10.6285 13.5497 11.3016 12.8765 12.1321 12.8765C9.67858 12.8765 9.53288 12.8287 9.14124 12.9847C8.54999 13.2233 8.19592 13.7869 8.19592 14.3801V15.5326L10.6285 17.113V14.3801Z" fill="#F7AC52"/>
<path d="M35.4834 28.8253V25.2744C35.4834 24.1851 34.6005 23.3022 33.5113 23.3022H6.48953C5.40031 23.3022 4.51758 24.1851 4.51758 25.2744V34.3529H35.4834V30.9103" fill="#7C5437"/>
<path d="M33.5114 23.3022H22.7275C25.2927 28.3796 29.9067 32.2449 35.4836 33.8109C35.4836 33.444 35.4836 25.5787 35.4836 25.2745C35.4836 24.1851 34.6006 23.3022 33.5114 23.3022Z" fill="#8E5E3D"/>
<path d="M38.6792 34.353H1.3218C0.602036 34.353 0.0186768 34.9365 0.0186768 35.6562C0.0186768 36.3759 0.602036 36.9594 1.3218 36.9594C2.95196 36.9594 37.3555 36.9594 38.6793 36.9594C39.3991 36.9594 39.9826 36.376 39.9826 35.6562C39.9825 34.9365 39.399 34.353 38.6792 34.353Z" fill="#BAD8E8"/>
<path d="M38.6793 35.656C37.9424 35.656 2.32403 35.656 1.32177 35.656C0.839816 35.656 0.419737 35.3936 0.194503 35.0045C-0.308466 35.8724 0.320519 36.9592 1.32177 36.9592C2.95192 36.9592 37.3554 36.9592 38.6793 36.9592C39.399 36.9592 39.9825 36.3757 39.9825 35.656C39.9825 35.4183 39.9179 35.1962 39.8067 35.0044C39.5813 35.3936 39.1615 35.656 38.6793 35.656Z" fill="#91C5DB"/>
<path d="M8.92219 23.3022H6.48953C5.40031 23.3022 4.51758 24.1851 4.51758 25.2744V34.3529H6.95016V25.2744C6.95016 24.1851 7.83297 23.3022 8.92219 23.3022Z" fill="#603D26"/>
<path d="M4.51758 25.2744V26.4799L7.04711 28.1235C8.03445 28.7651 8.89891 28.379 9.20398 28.1999L11.118 26.9562C11.1181 26.9562 11.1181 26.9562 11.1181 26.9562C11.993 26.3877 12.7652 26.741 13.026 26.8951C16.3737 29.0698 15.7557 29.0712 19.0108 26.9562C19.0108 26.9562 19.4368 26.6447 20.005 26.6447C20.2984 26.6471 20.6356 26.7261 20.9899 26.9562C20.9899 26.9562 20.9901 26.9562 20.9901 26.9562C22.8984 28.1962 23.2163 28.4931 23.8702 28.5137C24.2292 28.5306 24.587 28.4286 24.8695 28.263C26.0505 27.4956 25.5346 27.8308 26.9748 26.8951C27.2356 26.7411 28.0078 26.3878 28.8827 26.9562C28.8827 26.9563 28.8827 26.9563 28.8828 26.9563L30.7968 28.2C31.1018 28.379 31.9663 28.7651 32.9538 28.1236L35.4834 26.48V25.2744C35.4834 24.1851 34.6005 23.3022 33.5113 23.3022C32.6284 23.3022 6.78766 23.3022 6.48953 23.3022C5.40031 23.3022 4.51758 24.1851 4.51758 25.2744Z" fill="#FFC373"/>
<path d="M33.5114 23.3022C33.4208 23.3022 22.9419 23.3022 22.7275 23.3022C23.5355 24.9018 24.5471 26.3804 25.728 27.7053C25.8634 27.6173 25.6629 27.7475 26.9749 26.8951C27.2357 26.741 28.0079 26.3877 28.8828 26.9562C28.8828 26.9562 28.8828 26.9562 28.8829 26.9562L30.7969 28.1999C31.1019 28.379 31.9664 28.7651 32.9539 28.1235L35.4835 26.4799V25.2744C35.4836 24.1851 34.6006 23.3022 33.5114 23.3022Z" fill="#FCCA8D"/>
<path d="M6.95016 25.2744C6.95016 24.1851 7.83289 23.3022 8.92219 23.3022H6.48953C5.40031 23.3022 4.51758 24.1851 4.51758 25.2744V26.48L6.95016 28.0605V25.2744Z" fill="#F7AC52"/>
<path d="M13.5923 21.638C14.0596 21.638 14.4384 21.2592 14.4384 20.7919C14.4384 20.3246 14.0596 19.9458 13.5923 19.9458C13.125 19.9458 12.7462 20.3246 12.7462 20.7919C12.7462 21.2592 13.125 21.638 13.5923 21.638Z" fill="#00CDB3"/>
<path d="M22.1066 20.2483C22.5739 20.2483 22.9527 19.8695 22.9527 19.4022C22.9527 18.935 22.5739 18.5562 22.1066 18.5562C21.6393 18.5562 21.2605 18.935 21.2605 19.4022C21.2605 19.8695 21.6393 20.2483 22.1066 20.2483Z" fill="#57BAE5"/>
<path d="M27.8345 21.1126C28.3018 21.1126 28.6806 20.7338 28.6806 20.2665C28.6806 19.7992 28.3018 19.4204 27.8345 19.4204C27.3672 19.4204 26.9884 19.7992 26.9884 20.2665C26.9884 20.7338 27.3672 21.1126 27.8345 21.1126Z" fill="#00CDB3"/>
<path d="M23.3243 21.9309C23.1712 21.6052 23.3115 21.217 23.6372 21.0641L24.8127 20.5121C25.1385 20.3592 25.5266 20.4992 25.6795 20.8251C25.8324 21.1507 25.6922 21.5388 25.3666 21.6918L24.191 22.2438C23.8637 22.3971 23.4767 22.2556 23.3243 21.9309Z" fill="#FF4B4E"/>
<path d="M17.2331 21.0922L16.125 20.4153C15.818 20.2278 15.721 19.8268 15.9086 19.5196C16.0962 19.2125 16.4972 19.1155 16.8042 19.3032L17.9125 19.9801C18.2197 20.1676 18.3165 20.5687 18.1289 20.8757C17.9415 21.1826 17.5409 21.2799 17.2331 21.0922Z" fill="#FFCA54"/>
<path d="M25.167 32.6634C25.6343 32.6634 26.0131 32.2846 26.0131 31.8173C26.0131 31.35 25.6343 30.9712 25.167 30.9712C24.6997 30.9712 24.3209 31.35 24.3209 31.8173C24.3209 32.2846 24.6997 32.6634 25.167 32.6634Z" fill="#57BAE5"/>
<path d="M16.6527 31.2737C17.12 31.2737 17.4988 30.8949 17.4988 30.4276C17.4988 29.9604 17.12 29.5815 16.6527 29.5815C16.1854 29.5815 15.8066 29.9604 15.8066 30.4276C15.8066 30.8949 16.1854 31.2737 16.6527 31.2737Z" fill="#00CDB3"/>
<path d="M10.9248 32.137C11.3921 32.137 11.7709 31.7582 11.7709 31.2909C11.7709 30.8236 11.3921 30.4448 10.9248 30.4448C10.4575 30.4448 10.0787 30.8236 10.0787 31.2909C10.0787 31.7582 10.4575 32.137 10.9248 32.137Z" fill="#FF4B4E"/>
<path d="M14.5683 33.2686L13.3929 32.7166C13.0672 32.5637 12.9271 32.1756 13.08 31.8498C13.2329 31.5241 13.621 31.3842 13.9467 31.5369L15.1223 32.089C15.448 32.2419 15.5881 32.6299 15.4352 32.9557C15.2821 33.2815 14.8943 33.4215 14.5683 33.2686Z" fill="#FFCA54"/>
<path d="M29.6135 32.7168L28.4379 32.1649C28.1122 32.0118 27.9721 31.6239 28.125 31.2981C28.2779 30.9724 28.666 30.8325 28.9917 30.9851L30.1673 31.5371C30.4929 31.69 30.6331 32.078 30.4802 32.4039C30.328 32.7282 29.9411 32.8702 29.6135 32.7168Z" fill="#57BAE5"/>
<path d="M20.6305 31.9006C20.443 31.5936 20.5399 31.1926 20.8469 31.005L21.9552 30.328C22.2622 30.1405 22.6633 30.2374 22.8509 30.5444C23.0384 30.8514 22.9414 31.2524 22.6344 31.4402L21.5261 32.1171C21.219 32.3048 20.818 32.2078 20.6305 31.9006Z" fill="#FFCA54"/>
</g>
<defs>
<clipPath id="clip0">
<rect width="40" height="40" fill="white"/>
</clipPath>
</defs>
</svg>
