<svg width="160" height="27" viewBox="0 0 160 27" fill="none" xmlns="http://www.w3.org/2000/svg">
<path d="M0.0520001 0.079999H5.416V11.564L14.308 0.079999H20.752L10.564 12.572L21.616 26H14.704L5.416 14.372V26H0.0520001V0.079999ZM35.8203 23.084H35.7123C34.9683 24.236 34.1043 25.088 33.1203 25.64C32.1603 26.192 30.9843 26.468 29.5923 26.468C28.3443 26.468 27.1563 26.228 26.0283 25.748C24.9243 25.244 23.9403 24.548 23.0763 23.66C22.2363 22.772 21.5643 21.704 21.0603 20.456C20.5803 19.184 20.3403 17.78 20.3403 16.244C20.3403 14.708 20.5803 13.316 21.0603 12.068C21.5403 10.796 22.2003 9.716 23.0403 8.828C23.8803 7.94 24.8523 7.256 25.9563 6.776C27.0843 6.296 28.2963 6.056 29.5923 6.056C30.8883 6.056 32.0523 6.308 33.0843 6.812C34.1163 7.316 34.9683 8.072 35.6403 9.08H35.7483V6.524H40.8963V26H35.8203V23.084ZM30.6003 21.968C31.3443 21.968 32.0283 21.824 32.6523 21.536C33.2763 21.248 33.8163 20.852 34.2723 20.348C34.7283 19.844 35.0883 19.244 35.3523 18.548C35.6163 17.852 35.7483 17.084 35.7483 16.244C35.7483 15.404 35.6163 14.636 35.3523 13.94C35.0883 13.244 34.7283 12.644 34.2723 12.14C33.8163 11.636 33.2763 11.252 32.6523 10.988C32.0283 10.7 31.3443 10.556 30.6003 10.556C29.8563 10.556 29.1723 10.7 28.5483 10.988C27.9243 11.252 27.3843 11.636 26.9283 12.14C26.4723 12.644 26.1123 13.244 25.8483 13.94C25.5843 14.636 25.4523 15.404 25.4523 16.244C25.4523 17.084 25.5843 17.852 25.8483 18.548C26.1123 19.244 26.4723 19.844 26.9283 20.348C27.3843 20.852 27.9243 21.248 28.5483 21.536C29.1723 21.824 29.8563 21.968 30.6003 21.968ZM49.347 17.72V26H44.235V0.079999H49.347V14.408L55.467 6.524H61.623L53.847 15.812L62.487 26H56.043L49.347 17.72ZM65.9891 17.396C66.1811 18.884 66.6971 20.048 67.5371 20.888C68.3771 21.728 69.4451 22.148 70.7411 22.148C71.7491 22.148 72.6251 21.884 73.3691 21.356C74.1371 20.804 74.6891 20.036 75.0251 19.052L79.1651 20.492C78.9011 21.332 78.5051 22.124 77.9771 22.868C77.4731 23.588 76.8491 24.224 76.1051 24.776C75.3611 25.304 74.5211 25.712 73.5851 26C72.6491 26.312 71.6411 26.468 70.5611 26.468C69.0731 26.468 67.7171 26.216 66.4931 25.712C65.2931 25.208 64.2731 24.512 63.4331 23.624C62.5931 22.712 61.9451 21.632 61.4891 20.384C61.0331 19.112 60.8051 17.708 60.8051 16.172C60.8051 14.732 61.0331 13.4 61.4891 12.176C61.9451 10.928 62.5931 9.86 63.4331 8.972C64.2731 8.06 65.2811 7.352 66.4571 6.848C67.6331 6.32 68.9411 6.056 70.3811 6.056C71.8931 6.056 73.2251 6.332 74.3771 6.884C75.5291 7.412 76.4771 8.132 77.2211 9.044C77.9891 9.932 78.5651 10.964 78.9491 12.14C79.3331 13.292 79.5251 14.504 79.5251 15.776C79.5251 16.064 79.5131 16.352 79.4891 16.64C79.4651 16.904 79.4291 17.156 79.3811 17.396H65.9891ZM70.3451 10.232C69.1931 10.232 68.2451 10.604 67.5011 11.348C66.7571 12.092 66.2651 13.1 66.0251 14.372H74.4851C74.4611 13.796 74.3411 13.268 74.1251 12.788C73.9091 12.284 73.6211 11.84 73.2611 11.456C72.9011 11.072 72.4691 10.772 71.9651 10.556C71.4851 10.34 70.9451 10.232 70.3451 10.232ZM96.3242 23.084H96.2162C95.5442 24.164 94.7042 25.004 93.6962 25.604C92.7122 26.18 91.5362 26.468 90.1682 26.468C88.8962 26.468 87.6962 26.228 86.5682 25.748C85.4402 25.244 84.4442 24.548 83.5802 23.66C82.7402 22.772 82.0682 21.704 81.5642 20.456C81.0842 19.184 80.8442 17.78 80.8442 16.244C80.8442 14.708 81.0842 13.316 81.5642 12.068C82.0442 10.796 82.7042 9.716 83.5442 8.828C84.3842 7.94 85.3562 7.256 86.4602 6.776C87.5882 6.296 88.8002 6.056 90.0962 6.056C91.3922 6.056 92.5562 6.308 93.5882 6.812C94.6442 7.316 95.4962 8.048 96.1442 9.008H96.2522V0.079999H101.4V26H96.3242V23.084ZM91.1042 21.968C91.8482 21.968 92.5322 21.824 93.1562 21.536C93.7802 21.248 94.3202 20.852 94.7762 20.348C95.2322 19.844 95.5922 19.244 95.8562 18.548C96.1202 17.852 96.2522 17.084 96.2522 16.244C96.2522 15.404 96.1202 14.636 95.8562 13.94C95.5922 13.244 95.2322 12.644 94.7762 12.14C94.3202 11.636 93.7802 11.252 93.1562 10.988C92.5322 10.7 91.8482 10.556 91.1042 10.556C90.3602 10.556 89.6762 10.7 89.0522 10.988C88.4282 11.252 87.8882 11.636 87.4322 12.14C86.9762 12.644 86.6162 13.244 86.3522 13.94C86.0882 14.636 85.9562 15.404 85.9562 16.244C85.9562 17.084 86.0882 17.852 86.3522 18.548C86.6162 19.244 86.9762 19.844 87.4322 20.348C87.8882 20.852 88.4282 21.248 89.0522 21.536C89.6762 21.824 90.3602 21.968 91.1042 21.968ZM113.026 0.079999H117.418C119.026 0.079999 120.394 0.235999 121.522 0.547999C122.65 0.835999 123.562 1.256 124.258 1.808C124.978 2.36 125.494 3.032 125.806 3.824C126.142 4.592 126.31 5.456 126.31 6.416C126.31 7.136 126.226 7.808 126.058 8.432C125.914 9.056 125.662 9.632 125.302 10.16C124.942 10.664 124.45 11.12 123.826 11.528C123.202 11.912 122.422 12.224 121.486 12.464C123.406 12.896 124.882 13.652 125.914 14.732C126.97 15.812 127.498 17.144 127.498 18.728C127.498 19.664 127.354 20.576 127.066 21.464C126.802 22.328 126.31 23.096 125.59 23.768C124.894 24.44 123.934 24.98 122.71 25.388C121.486 25.796 119.926 26 118.03 26H113.026V0.079999ZM114.25 13.112V24.884H117.922C119.506 24.884 120.826 24.74 121.882 24.452C122.938 24.164 123.778 23.756 124.402 23.228C125.05 22.7 125.506 22.088 125.77 21.392C126.034 20.672 126.166 19.88 126.166 19.016C126.166 16.976 125.41 15.488 123.898 14.552C122.41 13.592 120.298 13.112 117.562 13.112H114.25ZM114.25 1.196V11.996H117.166C118.702 11.996 119.974 11.864 120.982 11.6C121.99 11.336 122.794 10.964 123.394 10.484C123.994 9.98 124.414 9.38 124.654 8.684C124.894 7.988 125.014 7.22 125.014 6.38C125.014 5.588 124.882 4.88 124.618 4.256C124.378 3.608 123.958 3.068 123.358 2.636C122.782 2.18 122.014 1.832 121.054 1.592C120.094 1.328 118.894 1.196 117.454 1.196H114.25ZM146.101 21.644H145.993C145.153 23.156 144.109 24.308 142.861 25.1C141.613 25.892 140.161 26.288 138.505 26.288C137.281 26.288 136.129 26.048 135.049 25.568C133.969 25.088 133.033 24.428 132.241 23.588C131.449 22.724 130.825 21.728 130.369 20.6C129.913 19.448 129.685 18.224 129.685 16.928C129.685 15.656 129.901 14.456 130.333 13.328C130.789 12.2 131.413 11.216 132.205 10.376C132.997 9.536 133.933 8.876 135.013 8.396C136.093 7.892 137.269 7.64 138.541 7.64C140.197 7.64 141.673 8.024 142.969 8.792C144.265 9.536 145.273 10.664 145.993 12.176H146.101V7.928H147.325V26H146.101V21.644ZM138.469 25.172C139.573 25.172 140.581 24.968 141.493 24.56C142.429 24.152 143.233 23.588 143.905 22.868C144.601 22.124 145.141 21.26 145.525 20.276C145.909 19.268 146.101 18.164 146.101 16.964C146.101 15.788 145.909 14.696 145.525 13.688C145.141 12.68 144.601 11.816 143.905 11.096C143.233 10.352 142.429 9.776 141.493 9.368C140.581 8.936 139.573 8.72 138.469 8.72C137.389 8.72 136.393 8.936 135.481 9.368C134.569 9.776 133.777 10.352 133.105 11.096C132.433 11.816 131.905 12.68 131.521 13.688C131.137 14.696 130.945 15.788 130.945 16.964C130.945 18.164 131.137 19.268 131.521 20.276C131.905 21.26 132.433 22.124 133.105 22.868C133.777 23.588 134.569 24.152 135.481 24.56C136.393 24.968 137.389 25.172 138.469 25.172ZM152.218 7.964H153.406V11.492H153.478C153.982 10.268 154.75 9.32 155.782 8.648C156.814 7.976 158.158 7.64 159.814 7.64V8.72C158.662 8.72 157.678 8.888 156.862 9.224C156.07 9.536 155.422 9.992 154.918 10.592C154.414 11.192 154.042 11.912 153.802 12.752C153.562 13.568 153.442 14.48 153.442 15.488V26H152.218V7.964Z" fill="white"/>
</svg>
